<svg xmlns="http://www.w3.org/2000/svg" viewBox="0 0 64 64">
  <defs>
    <linearGradient id="berryGradA" x1="0%" y1="0%" x2="100%" y2="100%">
      <stop offset="0%" stop-color="#E93B86"/>
      <stop offset="100%" stop-color="#C2185B"/>
    </linearGradient>
    <filter id="shadowA" x="-20%" y="-20%" width="140%" height="140%">
      <feDropShadow dx="0" dy="2" stdDeviation="2" flood-color="#000000" flood-opacity="0.3"/>
    </filter>
  </defs>
  <!-- High Contrast Badge -->
  <rect width="64" height="64" rx="16" fill="url(#berryGradA)"/>
  <rect x="1.5" y="1.5" width="61" height="61" rx="14.5" fill="none" stroke="#FFFFFF" stroke-opacity="0.25" stroke-width="1.5"/>
  <!-- Bold Editorial Numeral '5' -->
  <path d="M 22 17 L 42 17 L 42 24 L 29 24 L 28.5 32 C 30 31, 32.5 30.5, 35.5 30.5 C 41.5 30.5, 46 34.5, 46 41 C 46 47.5, 41 51.5, 34 51.5 C 27 51.5, 23 48, 22 43 L 29 41.5 C 29.5 44, 31.5 45.5, 34 45.5 C 37 45.5, 39 43.5, 39 41 C 39 38, 37 36, 33.5 36 C 30.5 36, 28.5 37.5, 27.5 39 L 22 37.5 Z" fill="#FFFFFF" filter="url(#shadowA)"/>
  <!-- Golden Saffron Spice Spark (4-Point Star) -->
  <path d="M 47 13 Q 47 18 42 18 Q 47 18 47 23 Q 47 18 52 18 Q 47 18 47 13 Z" fill="#FDE047"/>
  <circle cx="47" cy="18" r="1.5" fill="#FFFFFF"/>
</svg>